<svg width="27" height="27" viewBox="0 0 27 27" fill="none" xmlns="http://www.w3.org/2000/svg">
<path d="M13.5 1.6875C6.97676 1.6875 1.6875 6.97676 1.6875 13.5C1.6875 20.0232 6.97676 25.3125 13.5 25.3125C20.0232 25.3125 25.3125 20.0232 25.3125 13.5C25.3125 6.97676 20.0232 1.6875 13.5 1.6875ZM13.5 23.3086C8.08418 23.3086 3.69141 18.9158 3.69141 13.5C3.69141 8.08418 8.08418 3.69141 13.5 3.69141C18.9158 3.69141 23.3086 8.08418 23.3086 13.5C23.3086 18.9158 18.9158 23.3086 13.5 23.3086Z" fill="#EEC952"/>
<path d="M18.1063 16.8381L14.3464 14.1196V7.59375C14.3464 7.47773 14.2515 7.38281 14.1354 7.38281H12.8672C12.7512 7.38281 12.6562 7.47773 12.6562 7.59375V14.8553C12.6562 14.9238 12.6879 14.9871 12.7433 15.0267L17.1044 18.2065C17.1993 18.2751 17.3312 18.254 17.3997 18.1617L18.1538 17.1334C18.2224 17.0358 18.2013 16.904 18.1063 16.8381Z" fill="#EEC952"/>
</svg>
