<svg width="131" height="131" viewBox="0 0 131 131" fill="none" xmlns="http://www.w3.org/2000/svg">
<g clip-path="url(#clip0)">
<path d="M70.5118 43.2165C69.8817 43.0648 69.2496 43.4521 69.0979 44.0811C68.9463 44.7103 69.3334 45.3433 69.9625 45.495C79.4603 47.7849 86.0936 56.217 86.0936 66.0003C86.0936 77.6313 76.631 87.0938 64.9999 87.0938C53.3689 87.0938 43.9062 77.6313 43.9062 66.0003C43.9062 56.2168 50.5398 47.7847 60.0381 45.495C60.6673 45.3433 61.0543 44.7103 60.9027 44.0811C60.7511 43.4521 60.1185 43.0648 59.4888 43.2165C54.4636 44.428 49.9109 47.3326 46.6692 51.3955C43.3283 55.5824 41.5625 60.6329 41.5625 66.0004C41.5625 78.9238 52.0765 89.4377 64.9999 89.4377C77.9233 89.4377 88.4373 78.9238 88.4373 66.0004C88.4373 60.633 86.6717 55.5829 83.331 51.3958C80.0895 47.3328 75.5368 44.428 70.5118 43.2165Z" fill="#070809"/>
<path d="M94.2934 63.1823L92.9225 60.6245L93.1513 57.4624C93.3709 55.4354 92.5624 53.4575 90.9858 52.1674L88.71 50.3039L87.8148 47.6072C87.3135 45.5453 85.7474 43.8881 83.7157 43.2744L80.9066 42.4258L78.7553 39.9389C77.4823 38.4416 75.5555 37.663 73.6012 37.8548L70.6855 38.1453L67.8195 36.7076C66.0533 35.7661 63.9474 35.7654 62.1807 36.7075L59.6231 38.0783L56.4611 37.8497C54.4342 37.6291 52.4561 38.4385 51.166 40.0152L49.3025 42.291L46.6057 43.1862C44.5438 43.6874 42.8867 45.2534 42.2729 47.285L41.4244 50.0941L38.9374 52.2456C37.4403 53.5187 36.6611 55.445 36.8534 57.3997L37.1439 60.3153L35.7063 63.1814C34.7647 64.9476 34.7639 67.0534 35.7061 68.8199L37.0769 71.3777L36.8483 74.5398C36.6284 76.5665 37.4369 78.5445 39.0138 79.8348L41.2896 81.6982L42.1847 84.3951C42.6861 86.457 44.252 88.1142 46.2838 88.728L49.0929 89.5764L51.2442 92.0632C52.5171 93.5604 54.4431 94.339 56.3985 94.1474L59.314 93.8568L62.1798 95.2944C63.0633 95.7656 64.0315 96.0012 64.9999 96.0011C65.9676 96.0011 66.9356 95.7658 67.8186 95.2948L70.3764 93.9239L73.5383 94.1526C75.5651 94.3728 77.5435 93.5642 78.8335 91.9872L80.697 89.7113L83.3938 88.8161C85.4557 88.315 87.1127 86.7489 87.7267 84.717L88.5751 81.9081L91.0619 79.7567C92.5591 78.4837 93.3384 76.5574 93.1461 74.6025L92.8556 71.687L94.2931 68.8212C95.235 67.0549 95.2358 64.9491 94.2934 63.1823ZM92.22 67.7277C92.2148 67.7372 92.2098 67.7468 92.205 67.7565L90.6082 70.9398C90.5087 71.1381 90.4676 71.3606 90.4895 71.5814L90.8136 74.8334C90.9306 76.0226 90.4558 77.1956 89.536 77.9777L86.7847 80.3579C86.6169 80.503 86.4939 80.6928 86.4297 80.9053L85.4829 84.0393C85.1054 85.2891 84.0799 86.2498 82.8066 86.5467C82.7718 86.5548 82.7373 86.5645 82.7035 86.5757L79.6363 87.5938C79.4257 87.6638 79.2393 87.792 79.0988 87.9636L77.0196 90.5027C76.2302 91.4676 75.0174 91.9609 73.776 91.8208C73.7606 91.819 73.745 91.8176 73.7296 91.8166L70.2066 91.5618C69.9844 91.5453 69.7641 91.5929 69.5685 91.6977L66.7135 93.228C65.6367 93.8019 64.3506 93.7996 63.2733 93.2214C63.2638 93.2162 63.2542 93.2112 63.2445 93.2064L60.0613 91.6095C59.8977 91.5275 59.7177 91.485 59.5358 91.485C59.4971 91.485 59.4583 91.487 59.4196 91.4908L56.1676 91.815C54.9799 91.9313 53.8056 91.4573 53.0234 90.5375L50.6431 87.7862C50.498 87.6183 50.3081 87.4953 50.0957 87.4311L46.9615 86.4843C45.7118 86.1069 44.7511 85.0814 44.4542 83.808C44.4461 83.7732 44.4364 83.7387 44.4251 83.7049L43.407 80.6376C43.337 80.427 43.209 80.2407 43.0373 80.1001L40.4983 78.0212C39.5333 77.2315 39.0404 76.0188 39.1801 74.7775C39.1818 74.762 39.1832 74.7464 39.1843 74.731L39.4391 71.2081C39.4551 70.9867 39.4079 70.7654 39.3031 70.57L37.7729 67.7149C37.1987 66.6382 37.2011 65.3522 37.7796 64.2748C37.7846 64.2653 37.7896 64.2557 37.7944 64.246L39.3912 61.0626C39.4907 60.8643 39.5319 60.6418 39.5099 60.421L39.1859 57.1689C39.069 55.9798 39.5437 54.8068 40.4633 54.0246L43.2146 51.6444C43.3825 51.4993 43.5056 51.3095 43.5698 51.097L44.5165 47.9628C44.894 46.7132 45.9195 45.7525 47.1928 45.4555C47.2277 45.4474 47.2621 45.4377 47.296 45.4264L50.3631 44.4083C50.5737 44.3384 50.7601 44.2102 50.9006 44.0386L52.9797 41.4996C53.7693 40.5346 54.9819 40.0413 56.2234 40.1814C56.2389 40.1831 56.2545 40.1845 56.2698 40.1856L59.7928 40.4404C60.0145 40.4561 60.2354 40.4093 60.431 40.3044L63.2858 38.7742C64.3624 38.2 65.6485 38.2023 66.7262 38.7808C66.7357 38.7858 66.7452 38.7908 66.7548 38.7956L69.938 40.3926C70.1364 40.4922 70.3592 40.5327 70.5798 40.5113L73.8319 40.1871C75.0203 40.0708 76.1941 40.5449 76.9762 41.4647L79.3565 44.216C79.5016 44.3838 79.6914 44.5069 79.9037 44.571L83.0379 45.518C84.2877 45.8954 85.2484 46.9209 85.5452 48.1943C85.5533 48.2291 85.5631 48.2635 85.5743 48.2974L86.5924 51.3645C86.6624 51.5751 86.7906 51.7616 86.9622 51.9021L89.5011 53.981C90.4662 54.7706 90.9589 55.9834 90.8194 57.2249C90.8176 57.2404 90.8162 57.2559 90.8151 57.2714L90.5603 60.7942C90.5442 61.0156 90.5914 61.2368 90.6962 61.4323L92.2265 64.2875C92.8009 65.3641 92.7984 66.6501 92.22 67.7277Z" fill="#070809"/>
<path d="M55.0128 54.8899L50.1675 62.2169C49.5604 63.1336 49.6422 64.3456 50.3639 65.1622L63.2753 79.849C63.7145 80.3469 64.3417 80.6328 64.9961 80.6334H64.998C65.6501 80.6334 66.2759 80.3501 66.716 79.8559C69.6271 76.6457 72.5406 73.2972 75.3585 70.0588C76.7596 68.4485 78.2083 66.7834 79.6324 65.1637C80.3826 64.3132 80.4388 63.0439 79.772 62.1291L74.8989 54.7599C74.4647 54.1037 73.747 53.7116 72.9777 53.7107H57.0199C56.1938 53.7108 55.4303 54.161 55.0128 54.8899ZM58.7023 64.7314L62.363 75.2614L53.1059 64.7314H58.7023ZM67.134 56.0545L68.9152 62.3877H61.0825L62.8635 56.0545H67.134ZM68.8139 64.7314L64.9988 75.7055L61.1836 64.7314H68.8139ZM73.5903 68.5203C71.6286 70.7748 69.6203 73.0821 67.6016 75.3562L71.2952 64.7314H76.894C75.7855 65.9976 74.6737 67.2752 73.5903 68.5203ZM77.133 62.3877H71.3497L69.5687 56.0545H72.945L77.133 62.3877ZM57.0468 56.0545H60.4288L58.6478 62.3877H52.8645L56.992 56.1461C57.0113 56.117 57.0291 56.087 57.0458 56.0563C57.0461 56.0557 57.0465 56.0551 57.0468 56.0545Z" fill="#070809"/>
<path d="M65.0008 44.9062C65.6479 44.9062 66.1727 44.3815 66.1727 43.7344C66.1727 43.0873 65.6479 42.5625 65.0008 42.5625H65C64.3529 42.5625 63.8286 43.0873 63.8286 43.7344C63.8286 44.3815 64.3536 44.9062 65.0008 44.9062Z" fill="#070809"/>
</g>
<rect x="47.1507" y="0.680677" width="95" height="95" rx="19.5" transform="rotate(29.2853 47.1507 0.680677)" stroke="#EEC952"/>
<rect x="101.298" y="8.59723" width="95" height="95" rx="19.5" transform="rotate(77.3692 101.298 8.59723)" stroke="#EEC952"/>
<defs>
<clipPath id="clip0">
<rect width="60" height="60" fill="white" transform="translate(35 36)"/>
</clipPath>
</defs>
</svg>
