<svg width="131" height="131" viewBox="0 0 131 131" fill="none" xmlns="http://www.w3.org/2000/svg">
<path d="M64.8954 42.6242C65.5472 42.6242 66.0756 42.0958 66.0756 41.444V36.1802C66.0756 35.5284 65.5472 35 64.8954 35C64.2436 35 63.7152 35.5284 63.7152 36.1802V41.444C63.7153 42.0958 64.2437 42.6242 64.8954 42.6242Z" fill="#070809"/>
<path d="M93.7437 75.5452L91.6588 73.4662C90.9172 72.7254 89.9287 72.3174 88.8754 72.3174C88.2019 72.3174 87.5554 72.485 86.9825 72.7989L83.0536 68.8748L83.245 68.6836C84.8389 67.0866 84.8383 64.4915 83.2449 62.8999C82.6755 62.3294 81.965 61.949 81.1905 61.7889C81.2971 61.4208 81.3532 61.0353 81.3532 60.6407C81.3532 59.5444 80.9274 58.5165 80.1565 57.7488C79.587 57.1783 78.8766 56.7979 78.1021 56.6378C78.2088 56.2697 78.2649 55.8843 78.2649 55.4896C78.2649 54.3932 77.839 53.3654 77.0669 52.5965C76.4838 52.0141 75.7669 51.6454 75.0142 51.4885C75.4169 50.1002 75.0728 48.5382 73.9806 47.4441C73.0715 46.5388 71.8379 46.1498 70.649 46.2759L62.8636 44.8022C61.6763 44.577 60.1935 44.4281 59.2575 45.2818C59.1985 45.3357 59.1383 45.3977 59.079 45.4667C57.6277 44.9377 55.935 45.2527 54.7729 46.4136C54.0019 47.1836 53.5772 48.2111 53.5772 49.3068C53.5772 49.7015 53.6331 50.0869 53.7397 50.4551C52.966 50.6151 52.2564 50.995 51.6889 51.5636C50.9164 52.3329 50.4904 53.3593 50.4896 54.4537C50.4892 54.8493 50.5454 55.236 50.6525 55.6052C49.8784 55.7648 49.1684 56.144 48.5991 56.7126C47.8266 57.4843 47.4012 58.5124 47.4012 59.6075C47.4012 60.4463 47.6516 61.2454 48.1157 61.9204C47.5298 62.119 46.9931 62.4496 46.5436 62.8986C44.9487 64.4915 44.9481 67.0867 46.5447 68.6861L46.7354 68.8759L42.8061 72.7981C41.3458 72.1106 39.5466 72.3681 38.3416 73.5716L36.2554 75.652C35.5134 76.3931 35.1049 77.3816 35.1047 78.4355C35.1047 79.4895 35.5134 80.4782 36.2554 81.2194L38.859 83.8198C39.3201 84.2805 40.0674 84.28 40.5279 83.8189C40.9886 83.3577 40.9881 82.6104 40.527 82.1499L37.9234 79.5495C37.6279 79.2543 37.4651 78.8587 37.4651 78.4356C37.4651 78.0127 37.6279 77.6172 37.9227 77.3227L40.009 75.2423C40.5303 74.7216 41.3281 74.644 41.934 75.0063C41.9766 75.0704 42.0259 75.1313 42.0824 75.1879C42.1836 75.2893 42.299 75.367 42.4216 75.4238L54.3856 87.3702C54.4424 87.4941 54.5205 87.6107 54.6223 87.7127C54.7215 87.8119 54.8345 87.8887 54.9545 87.9452C55.2075 88.2312 55.3474 88.5966 55.3474 88.9864C55.3474 89.4094 55.1846 89.8049 54.889 90.1001L52.8049 92.1818C52.189 92.795 51.1873 92.7948 50.5734 92.1837L47.9698 89.5799C47.5089 89.119 46.7617 89.119 46.3008 89.5799C45.8399 90.0408 45.8399 90.788 46.3008 91.2489L48.9063 93.8546C49.6731 94.6183 50.6802 95 51.6878 95C52.6956 95 53.7039 94.6177 54.4717 93.8533L56.5572 91.7703C57.2992 91.0291 57.7079 90.0405 57.7079 88.9864C57.7079 88.2341 57.4987 87.5158 57.1097 86.8963L61.5319 82.4795C61.5366 82.4747 61.5413 82.4699 61.5461 82.4651C62.0525 81.9416 63.4626 82.0396 64.8263 82.1343C65.7952 82.2017 66.8754 82.2766 67.9308 82.1549L72.7735 86.9918C72.4598 87.5638 72.2923 88.2095 72.2923 88.882C72.2923 89.9349 72.7009 90.9229 73.443 91.6641L75.5286 93.7471C76.2701 94.4879 77.2586 94.8959 78.3119 94.8959C79.365 94.8959 80.3535 94.488 81.0952 93.7471L93.7445 81.1131C94.4866 80.372 94.8952 79.3834 94.8952 78.3295C94.8951 77.2756 94.4865 76.287 93.7437 75.5452ZM62.4242 47.1214L67.5438 48.0904L64.4794 51.1536C64.0054 50.9258 63.3557 50.5008 62.643 49.819C61.6674 48.8858 60.9695 47.8082 60.906 47.1361C60.9059 47.1358 60.9059 47.1354 60.9059 47.1351C60.9059 47.135 60.9058 47.1349 60.9058 47.1347C60.9012 47.0865 60.9 47.0479 60.9006 47.0185C61.055 46.981 61.4649 46.9394 62.4242 47.1214ZM56.4408 48.0836C57.0387 47.4863 57.9675 47.4174 58.6431 47.8749C59.026 49.4801 60.3953 50.935 61.0114 51.5245C61.4679 51.9613 62.9329 53.2711 64.4116 53.6311C64.6116 53.9179 64.7205 54.2597 64.7205 54.6204C64.7205 55.0851 64.5418 55.5195 64.2161 55.8448C63.8914 56.1701 63.4563 56.3492 62.9908 56.3492C62.5252 56.3492 62.0901 56.1701 61.7638 55.8433L61.7637 55.8432L61.7631 55.8426L56.4407 50.5298C56.1162 50.2058 55.9375 49.7713 55.9375 49.3068C55.9376 48.8422 56.1163 48.4077 56.4408 48.0836ZM53.3569 53.2336C53.6816 52.9085 54.1163 52.7293 54.5811 52.7293C55.0464 52.7293 55.4825 52.9088 55.8093 53.2353L60.0951 57.5125C60.77 58.1884 60.77 59.2884 60.0974 59.962C59.7709 60.2872 59.3343 60.4662 58.868 60.4662C58.4017 60.4662 57.9651 60.2872 57.64 59.9634L57.6399 59.9633L54.3885 56.7126C54.3835 56.7076 54.378 56.7029 54.3728 56.6977L53.3556 55.681C53.0293 55.355 52.8496 54.9197 52.85 54.4554C52.8504 53.9927 53.0295 53.5597 53.3569 53.2336ZM50.2672 58.3826C50.5921 58.0581 51.0277 57.8794 51.4939 57.8794C51.9562 57.8794 52.388 58.0556 52.7116 58.3744L55.9729 61.6342C56.2981 61.9581 56.4773 62.3921 56.4773 62.8561C56.4773 63.3201 56.2981 63.754 55.9716 64.0792C55.6468 64.4036 55.2116 64.5823 54.7463 64.5823C54.2802 64.5823 53.8437 64.4031 53.5184 64.0792L52.3361 62.8983C52.3359 62.898 52.3355 62.8977 52.3353 62.8975L50.2673 60.832C49.9413 60.5063 49.7617 60.0713 49.7617 59.6072C49.7617 59.1433 49.9413 58.7082 50.2672 58.3826ZM48.2117 64.5685C48.5381 64.2425 48.9742 64.0629 49.4398 64.0629C49.9053 64.0629 50.3413 64.2424 50.6676 64.5681L51.8515 65.7507C52.1768 66.0746 52.3559 66.5085 52.3559 66.9726C52.3559 67.4366 52.1767 67.8705 51.8491 68.197C51.5243 68.5222 51.0892 68.7013 50.6238 68.7013C50.1582 68.7013 49.7231 68.5223 49.396 68.1946L49.2477 68.047C49.2458 68.045 49.2442 68.0429 49.2424 68.041C49.2401 68.0389 49.2378 68.037 49.2356 68.0349L48.2129 67.0162C47.538 66.3399 47.5374 65.242 48.2117 64.5685ZM72.2625 77.9815C71.8019 77.5203 71.0546 77.5199 70.5936 77.9805L69.5436 79.0292C68.5458 80.0269 66.738 79.9013 64.9897 79.78C63.0911 79.6481 61.1279 79.5119 59.8574 80.8162L55.5104 85.158L44.6397 74.3032L48.4867 70.4631C49.1226 70.8529 49.8563 71.0618 50.624 71.0618C51.7208 71.0618 52.7492 70.6367 53.5174 69.8671C54.2907 69.097 54.7166 68.0691 54.7166 66.9727C54.7166 66.9625 54.7159 66.9524 54.7159 66.9422C54.7261 66.9424 54.7363 66.9429 54.7465 66.9429C55.8418 66.9429 56.8694 66.5191 57.6386 65.7508C58.4119 64.9806 58.8379 63.9527 58.8379 62.8564C58.8379 62.8462 58.8372 62.8361 58.8372 62.8259C58.8475 62.8259 58.8578 62.8266 58.8682 62.8266C59.9631 62.8266 60.9913 62.4032 61.7657 61.632C62.5696 60.8268 62.9672 59.7667 62.9596 58.7089C62.9702 58.709 62.9807 58.7096 62.9913 58.7096C64.088 58.7095 65.1163 58.2844 65.8857 57.5137C66.6566 56.7436 67.0813 55.7161 67.0813 54.6204C67.0813 53.8542 66.873 53.1216 66.4845 52.487L69.8563 49.1166C70.1076 48.8664 70.4174 48.7094 70.7422 48.6446C70.7773 48.6408 70.812 48.6352 70.8463 48.6284C71.3674 48.5566 71.9145 48.7174 72.3129 49.1142C72.9878 49.7902 72.9878 50.8901 72.3154 51.5637L71.2885 52.5864C71.2851 52.5898 71.2815 52.5929 71.2781 52.5963L70.0953 53.777C69.634 54.2376 69.6336 54.9849 70.0942 55.446C70.555 55.9073 71.3022 55.9076 71.7632 55.4471L72.7942 54.4175C72.7945 54.4172 72.7947 54.417 72.7949 54.4168L72.9508 54.2615C73.6275 53.5909 74.724 53.5924 75.4 54.2675C75.7253 54.5914 75.9045 55.0253 75.9045 55.4894C75.9045 55.9533 75.7253 56.3873 75.3974 56.7138L74.3647 57.7486C74.3645 57.7488 74.3644 57.7489 74.3643 57.7491L73.1816 58.927C72.7198 59.3869 72.7183 60.1342 73.1782 60.5959C73.6382 61.0578 74.3854 61.0592 74.8472 60.5993L76.0353 59.4161C76.36 59.0908 76.7951 58.9117 77.2606 58.9117C77.7262 58.9117 78.1614 59.0908 78.4885 59.4184C78.8138 59.7425 78.9929 60.1764 78.9929 60.6405C78.9929 61.1044 78.8138 61.5384 78.4866 61.8642L76.4276 63.924C75.9668 64.385 75.967 65.1322 76.4279 65.5929C76.6584 65.8233 76.9602 65.9384 77.2622 65.9384C77.5643 65.9384 77.8665 65.8231 78.0968 65.5926L79.1059 64.5831C79.1117 64.5776 79.1179 64.5728 79.1236 64.5671C79.4484 64.2418 79.8835 64.0627 80.3489 64.0627C80.8145 64.0627 81.2497 64.2418 81.5756 64.5683C82.2497 65.2417 82.2491 66.3398 81.5756 67.0145L80.5496 68.0393C80.5492 68.0397 80.5488 68.04 80.5484 68.0404C80.548 68.0408 80.5477 68.0412 80.5473 68.0416L78.9189 69.668C78.4578 70.1287 78.4573 70.876 78.9179 71.3371C79.1484 71.5679 79.4507 71.6833 79.7529 71.6833C80.0547 71.6833 80.3566 71.5682 80.587 71.3382L81.3835 70.5426L85.2011 74.3557L74.3314 85.2122L70.4368 81.3223C70.7083 81.1477 70.9681 80.9424 71.212 80.6985L72.2614 79.6504C72.7227 79.19 72.7232 78.4427 72.2625 77.9815ZM92.0764 79.4431L79.427 92.0771C79.1311 92.3726 78.735 92.5354 78.3118 92.5354C77.8885 92.5354 77.4924 92.3726 77.1964 92.077L75.1108 89.9939C74.8152 89.6989 74.6525 89.304 74.6525 88.882C74.6525 88.4601 74.8152 88.0652 75.1108 87.77L87.7601 75.136C88.0561 74.8403 88.4521 74.6775 88.8755 74.6775C89.2988 74.6775 89.6949 74.8403 89.9916 75.1367L92.0765 77.2157C92.372 77.5109 92.5348 77.9063 92.5348 78.3293C92.5347 78.7525 92.3719 79.148 92.0764 79.4431Z" fill="#070809"/>
<path d="M49.2239 41.6292C49.4543 41.8591 49.756 41.9739 50.0576 41.9739C50.36 41.9739 50.6624 41.8584 50.8929 41.6274C51.3534 41.166 51.3527 40.4189 50.8913 39.9584L46.5907 35.6664C46.1295 35.206 45.3822 35.2066 44.9218 35.6681C44.4613 36.1294 44.462 36.8766 44.9234 37.3371L49.2239 41.6292Z" fill="#070809"/>
<path d="M79.733 41.9739C80.0348 41.9739 80.3367 41.8588 80.567 41.6288L84.8643 37.3367C85.3254 36.8761 85.3259 36.1288 84.8653 35.6677C84.4047 35.2065 83.6575 35.2061 83.1963 35.6667L78.899 39.9588C78.4379 40.4194 78.4374 41.1667 78.8981 41.6278C79.1286 41.8586 79.4308 41.9739 79.733 41.9739Z" fill="#070809"/>
<path d="M42.3615 85.7662C41.9046 86.2309 41.9109 86.9782 42.3758 87.4351L42.3792 87.4384C42.6085 87.6639 42.9063 87.7761 43.204 87.7761C43.5095 87.7761 43.815 87.6579 44.0464 87.4225C44.5034 86.9577 44.4953 86.2088 44.0305 85.7519C43.5659 85.2949 42.8187 85.3014 42.3615 85.7662Z" fill="#070809"/>
<path d="M75.1491 76.2812C75.3287 76.2812 75.5108 76.2403 75.6817 76.1541C76.2637 75.8606 76.4975 75.1509 76.2041 74.5689C75.9105 73.987 75.2007 73.7531 74.6189 74.0466L74.6123 74.0499C74.0303 74.3435 73.7998 75.0515 74.0933 75.6335C74.3005 76.0445 74.7172 76.2812 75.1491 76.2812Z" fill="#070809"/>
<rect x="47.1507" y="0.680677" width="95" height="95" rx="19.5" transform="rotate(29.2853 47.1507 0.680677)" stroke="#EEC952"/>
<rect x="101.298" y="8.59723" width="95" height="95" rx="19.5" transform="rotate(77.3692 101.298 8.59723)" stroke="#EEC952"/>
</svg>
