<svg width="49" height="41" viewBox="0 0 49 41" fill="none" xmlns="http://www.w3.org/2000/svg">
<path d="M0.750729 21.2499H48.2493C48.6637 21.2499 49 20.9135 49 20.4991C49 20.0847 48.6637 19.7484 48.2493 19.7484H0.750729C0.336327 19.7484 0 20.0847 0 20.4991C0 20.9135 0.336327 21.2499 0.750729 21.2499Z" fill="#EEC952"/>
<path d="M19.5746 40.0722C19.7668 40.0722 19.959 39.9986 20.1061 39.8529C20.3989 39.5602 20.3989 39.0842 20.1061 38.7914L1.81236 20.4977L20.1061 2.20995C20.3989 1.91717 20.3989 1.4412 20.1061 1.14842C19.8133 0.855637 19.3373 0.855637 19.0446 1.14842L0.220818 19.9662C0.0796814 20.1073 0.00160599 20.298 0.00160599 20.4977C0.00160599 20.6974 0.0811825 20.8881 0.220818 21.0292L19.0446 39.8514C19.1902 39.9986 19.3824 40.0722 19.5746 40.0722Z" fill="#EEC952"/>
</svg>
