<svg width="131" height="131" viewBox="0 0 131 131" fill="none" xmlns="http://www.w3.org/2000/svg">
<g clip-path="url(#clip0)">
<path d="M84.5121 66.7124C84.0299 66.7124 83.6389 67.1033 83.6389 67.5856C83.6389 68.1969 83.1416 68.6943 82.5302 68.6943C81.919 68.6943 81.4215 68.1969 81.4215 67.5856C81.4215 67.1032 81.0306 66.7124 80.5483 66.7124C80.0661 66.7124 79.6752 67.1033 79.6752 67.5856C79.6752 69.1599 80.956 70.4406 82.5302 70.4406C84.1044 70.4406 85.3853 69.1597 85.3853 67.5856C85.3853 67.1031 84.9943 66.7124 84.5121 66.7124Z" fill="#070809"/>
<mask id="path-2-outside-1" maskUnits="userSpaceOnUse" x="34" y="34.5994" width="62" height="61" fill="black">
<rect fill="white" x="34" y="34.5994" width="62" height="61"/>
<path d="M92.7083 66.855L90.2506 66.0678C89.9359 65.9669 89.6878 65.7156 89.5871 65.3956C89.0691 63.7487 88.2875 62.2027 87.2639 60.8002C86.7973 60.1609 86.2786 59.5505 85.7118 58.9694C86.0744 57.3788 86.2715 55.5787 86.246 54.0235C86.2094 51.7987 85.7648 50.4938 84.8868 50.0339C84.414 49.786 82.9749 49.0327 75.1858 52.5982C75.0014 52.6826 74.8291 52.7866 74.6696 52.9056C74.1445 52.7645 73.6078 52.634 73.0678 52.5168C73.0027 52.5026 72.9357 52.4901 72.8702 52.4762C73.5014 51.0974 73.8699 49.5999 73.9392 48.0539C73.9607 47.5721 73.5877 47.164 73.1059 47.1426C72.6253 47.1187 72.2159 47.4939 72.1945 47.9758C72.0807 50.5177 71.0263 52.9094 69.2255 54.7102C68.1497 55.7861 66.8899 56.5676 65.5473 57.0598C63.2189 56.7331 60.8472 56.7331 58.5188 57.0598C57.1761 56.5676 55.9164 55.7861 54.8405 54.7102C52.9194 52.789 51.8613 50.2347 51.8613 47.5177C51.8613 44.8006 52.9194 42.2464 54.8405 40.3252C56.7617 38.4039 59.3162 37.3458 62.033 37.3458C64.7499 37.3458 67.3044 38.4039 69.2255 40.3252C69.9976 41.0972 70.6355 41.9782 71.1218 42.9435C71.3387 43.3743 71.8638 43.5477 72.2945 43.3307C72.7252 43.1139 72.8986 42.5888 72.6816 42.1581C72.1118 41.0262 71.3644 39.9941 70.4606 39.0901C68.2095 36.8391 65.2166 35.5994 62.0332 35.5994C58.8498 35.5994 55.8568 36.8391 53.6057 39.0901C51.3547 41.3413 50.115 44.3342 50.115 47.5176C50.115 50.701 51.3547 53.6939 53.6057 55.945C54.2551 56.5943 54.9615 57.1527 55.7087 57.6205C55.7089 57.6205 55.7091 57.6204 55.7094 57.6204C55.1664 57.7615 54.6276 57.92 54.0948 58.0981C53.6374 58.251 53.3906 58.7457 53.5435 59.2032C53.6963 59.6605 54.1912 59.9073 54.6485 59.7545C59.4105 58.1625 64.6558 58.1625 69.4179 59.7545C69.5097 59.7852 69.603 59.7998 69.6948 59.7998C70.06 59.7998 70.4006 59.5687 70.5228 59.2032C70.6757 58.7458 70.4289 58.251 69.9716 58.0981C69.4387 57.92 68.8999 57.7614 68.357 57.6204C68.3572 57.6204 68.3574 57.6205 68.3577 57.6205C69.105 57.1527 69.8112 56.5943 70.4606 55.945C71.035 55.3705 71.5421 54.7432 71.9824 54.0766C72.2231 54.1233 72.462 54.1723 72.6975 54.2234C73.0111 54.2915 73.3232 54.3646 73.6326 54.4414C73.6229 54.4793 73.6129 54.5172 73.6048 54.5557C73.179 56.5766 73.2066 58.364 73.687 59.8678C74.1187 61.2196 74.8979 62.3147 76.0026 63.123C77.3047 64.0755 78.8766 64.4869 80.3006 64.4869C81.3723 64.4869 82.3603 64.2537 83.0859 63.8427C83.9067 63.3778 84.5943 62.3983 85.1387 60.9276C85.3903 61.2212 85.6287 61.5221 85.8535 61.83C86.7649 63.0785 87.4606 64.4546 87.9214 65.9196C88.192 66.7802 88.8637 67.4573 89.7181 67.7311L92.1758 68.5184C92.8207 68.725 93.2539 69.3186 93.2539 69.9957V74.0709C93.2539 74.748 92.8207 75.3415 92.1758 75.5481L88.2161 76.8164C87.5826 77.0195 87.0465 77.4549 86.7065 78.0425C85.1509 80.731 82.705 82.9558 79.4366 84.6551C79.059 84.8516 78.7974 85.2031 78.7187 85.6196L77.4505 92.3348C77.4154 92.5198 77.2534 92.654 77.065 92.654H72.9416C72.7532 92.654 72.5912 92.5197 72.5561 92.3348L71.8537 88.6236C71.7154 87.8934 71.0306 87.4083 70.2935 87.52C68.5173 87.7886 66.687 87.9246 64.8539 87.9246C63.49 87.9246 62.1437 87.8486 60.8519 87.6985C60.1377 87.6163 59.4723 88.1032 59.3388 88.8085L58.6713 92.3348C58.6362 92.5198 58.4742 92.654 58.2859 92.654H54.1624C53.9741 92.654 53.812 92.5197 53.7765 92.332L52.5554 85.9895C52.4768 85.5809 52.2201 85.2334 51.8509 85.0362C46.2793 82.0619 43.3344 77.0927 43.3344 70.6661C43.3344 67.4191 44.0448 64.5478 45.4457 62.1319C46.7531 59.8773 48.6625 58.0132 51.121 56.5912C51.5384 56.3496 51.6811 55.8155 51.4396 55.398C51.1982 54.9805 50.6641 54.8382 50.2466 55.0793C45.4795 57.837 42.6043 62.0914 41.8127 67.4949V67.4948C41.7287 67.4871 41.6445 67.4799 41.5607 67.4712C41.576 66.8882 41.4705 66.2999 41.2408 65.729C40.7342 64.4697 39.6936 63.5608 38.5896 63.4135C37.7196 63.297 36.8916 63.6664 36.3171 64.4255C35.484 65.5264 35.6198 66.3975 35.8803 66.9345C36.3201 67.8407 37.4506 68.4817 39.3267 68.8847C39.2751 68.9619 39.2184 69.0395 39.1563 69.1175C38.0478 70.5077 36.7419 70.815 35.8939 70.844C35.3975 70.8607 35 71.2593 35 71.7561V71.7603C35 72.2502 35.3866 72.6498 35.8761 72.6722C35.9388 72.6752 36.0043 72.6767 36.0725 72.6767C37.1455 72.6767 38.8675 72.2809 40.522 70.2064C40.7832 69.8789 40.996 69.5335 41.1596 69.1765C41.3244 69.1952 41.4827 69.2111 41.6343 69.2252C41.6343 69.2248 41.6343 69.2246 41.6345 69.2242C41.6047 69.6974 41.5882 70.1775 41.5882 70.6661C41.5882 74.3022 42.455 77.5442 44.1644 80.3024C45.7406 82.8454 47.9973 84.9276 50.874 86.4934L52.0611 92.6594C52.252 93.6681 53.1357 94.4003 54.1624 94.4003H58.2859C59.3125 94.4003 60.1962 93.6681 60.3871 92.6594L60.9907 89.4709C62.2441 89.6037 63.5418 89.671 64.8538 89.671C66.6537 89.671 68.4516 89.5456 70.2038 89.2981L70.84 92.6596C71.0311 93.6684 71.9148 94.4004 72.9413 94.4004H77.0648C78.0915 94.4004 78.9752 93.6682 79.1662 92.6591L80.401 86.1211C83.8895 84.2765 86.5189 81.8533 88.2179 78.917C88.3404 78.7054 88.5289 78.5501 88.7487 78.4797L92.7083 77.2114C94.079 76.772 95 75.51 95 74.0706V69.9954C95 68.5561 94.079 67.2941 92.7083 66.855ZM84.3685 56.4773C84.0324 59.3514 83.1309 61.81 82.225 62.323C81.1954 62.9063 78.8183 63.0189 77.0335 61.7133C75.2466 60.4062 74.6519 58.0557 75.3134 54.9157C75.3134 54.9156 75.3134 54.9156 75.3134 54.9156C75.3799 54.6003 75.6039 54.3275 75.9127 54.1861C80.2843 52.185 82.8046 51.5305 83.741 51.5305C83.8823 51.5305 83.9875 51.5454 84.0576 51.5728C84.3389 51.8726 84.7078 53.5766 84.3685 56.4773ZM37.4517 66.172C37.3613 65.9856 37.5746 65.6581 37.7098 65.4793C37.9242 65.1961 38.1216 65.1382 38.2708 65.1382C38.3023 65.1382 38.3318 65.1408 38.3587 65.1444C38.7602 65.198 39.3227 65.6398 39.6207 66.3805C39.6909 66.5549 39.7821 66.8438 39.8034 67.204C38.5946 66.9536 37.6555 66.5925 37.4517 66.172Z"/>
</mask>
<path d="M92.7083 66.855L90.2506 66.0678C89.9359 65.9669 89.6878 65.7156 89.5871 65.3956C89.0691 63.7487 88.2875 62.2027 87.2639 60.8002C86.7973 60.1609 86.2786 59.5505 85.7118 58.9694C86.0744 57.3788 86.2715 55.5787 86.246 54.0235C86.2094 51.7987 85.7648 50.4938 84.8868 50.0339C84.414 49.786 82.9749 49.0327 75.1858 52.5982C75.0014 52.6826 74.8291 52.7866 74.6696 52.9056C74.1445 52.7645 73.6078 52.634 73.0678 52.5168C73.0027 52.5026 72.9357 52.4901 72.8702 52.4762C73.5014 51.0974 73.8699 49.5999 73.9392 48.0539C73.9607 47.5721 73.5877 47.164 73.1059 47.1426C72.6253 47.1187 72.2159 47.4939 72.1945 47.9758C72.0807 50.5177 71.0263 52.9094 69.2255 54.7102C68.1497 55.7861 66.8899 56.5676 65.5473 57.0598C63.2189 56.7331 60.8472 56.7331 58.5188 57.0598C57.1761 56.5676 55.9164 55.7861 54.8405 54.7102C52.9194 52.789 51.8613 50.2347 51.8613 47.5177C51.8613 44.8006 52.9194 42.2464 54.8405 40.3252C56.7617 38.4039 59.3162 37.3458 62.033 37.3458C64.7499 37.3458 67.3044 38.4039 69.2255 40.3252C69.9976 41.0972 70.6355 41.9782 71.1218 42.9435C71.3387 43.3743 71.8638 43.5477 72.2945 43.3307C72.7252 43.1139 72.8986 42.5888 72.6816 42.1581C72.1118 41.0262 71.3644 39.9941 70.4606 39.0901C68.2095 36.8391 65.2166 35.5994 62.0332 35.5994C58.8498 35.5994 55.8568 36.8391 53.6057 39.0901C51.3547 41.3413 50.115 44.3342 50.115 47.5176C50.115 50.701 51.3547 53.6939 53.6057 55.945C54.2551 56.5943 54.9615 57.1527 55.7087 57.6205C55.7089 57.6205 55.7091 57.6204 55.7094 57.6204C55.1664 57.7615 54.6276 57.92 54.0948 58.0981C53.6374 58.251 53.3906 58.7457 53.5435 59.2032C53.6963 59.6605 54.1912 59.9073 54.6485 59.7545C59.4105 58.1625 64.6558 58.1625 69.4179 59.7545C69.5097 59.7852 69.603 59.7998 69.6948 59.7998C70.06 59.7998 70.4006 59.5687 70.5228 59.2032C70.6757 58.7458 70.4289 58.251 69.9716 58.0981C69.4387 57.92 68.8999 57.7614 68.357 57.6204C68.3572 57.6204 68.3574 57.6205 68.3577 57.6205C69.105 57.1527 69.8112 56.5943 70.4606 55.945C71.035 55.3705 71.5421 54.7432 71.9824 54.0766C72.2231 54.1233 72.462 54.1723 72.6975 54.2234C73.0111 54.2915 73.3232 54.3646 73.6326 54.4414C73.6229 54.4793 73.6129 54.5172 73.6048 54.5557C73.179 56.5766 73.2066 58.364 73.687 59.8678C74.1187 61.2196 74.8979 62.3147 76.0026 63.123C77.3047 64.0755 78.8766 64.4869 80.3006 64.4869C81.3723 64.4869 82.3603 64.2537 83.0859 63.8427C83.9067 63.3778 84.5943 62.3983 85.1387 60.9276C85.3903 61.2212 85.6287 61.5221 85.8535 61.83C86.7649 63.0785 87.4606 64.4546 87.9214 65.9196C88.192 66.7802 88.8637 67.4573 89.7181 67.7311L92.1758 68.5184C92.8207 68.725 93.2539 69.3186 93.2539 69.9957V74.0709C93.2539 74.748 92.8207 75.3415 92.1758 75.5481L88.2161 76.8164C87.5826 77.0195 87.0465 77.4549 86.7065 78.0425C85.1509 80.731 82.705 82.9558 79.4366 84.6551C79.059 84.8516 78.7974 85.2031 78.7187 85.6196L77.4505 92.3348C77.4154 92.5198 77.2534 92.654 77.065 92.654H72.9416C72.7532 92.654 72.5912 92.5197 72.5561 92.3348L71.8537 88.6236C71.7154 87.8934 71.0306 87.4083 70.2935 87.52C68.5173 87.7886 66.687 87.9246 64.8539 87.9246C63.49 87.9246 62.1437 87.8486 60.8519 87.6985C60.1377 87.6163 59.4723 88.1032 59.3388 88.8085L58.6713 92.3348C58.6362 92.5198 58.4742 92.654 58.2859 92.654H54.1624C53.9741 92.654 53.812 92.5197 53.7765 92.332L52.5554 85.9895C52.4768 85.5809 52.2201 85.2334 51.8509 85.0362C46.2793 82.0619 43.3344 77.0927 43.3344 70.6661C43.3344 67.4191 44.0448 64.5478 45.4457 62.1319C46.7531 59.8773 48.6625 58.0132 51.121 56.5912C51.5384 56.3496 51.6811 55.8155 51.4396 55.398C51.1982 54.9805 50.6641 54.8382 50.2466 55.0793C45.4795 57.837 42.6043 62.0914 41.8127 67.4949V67.4948C41.7287 67.4871 41.6445 67.4799 41.5607 67.4712C41.576 66.8882 41.4705 66.2999 41.2408 65.729C40.7342 64.4697 39.6936 63.5608 38.5896 63.4135C37.7196 63.297 36.8916 63.6664 36.3171 64.4255C35.484 65.5264 35.6198 66.3975 35.8803 66.9345C36.3201 67.8407 37.4506 68.4817 39.3267 68.8847C39.2751 68.9619 39.2184 69.0395 39.1563 69.1175C38.0478 70.5077 36.7419 70.815 35.8939 70.844C35.3975 70.8607 35 71.2593 35 71.7561V71.7603C35 72.2502 35.3866 72.6498 35.8761 72.6722C35.9388 72.6752 36.0043 72.6767 36.0725 72.6767C37.1455 72.6767 38.8675 72.2809 40.522 70.2064C40.7832 69.8789 40.996 69.5335 41.1596 69.1765C41.3244 69.1952 41.4827 69.2111 41.6343 69.2252C41.6343 69.2248 41.6343 69.2246 41.6345 69.2242C41.6047 69.6974 41.5882 70.1775 41.5882 70.6661C41.5882 74.3022 42.455 77.5442 44.1644 80.3024C45.7406 82.8454 47.9973 84.9276 50.874 86.4934L52.0611 92.6594C52.252 93.6681 53.1357 94.4003 54.1624 94.4003H58.2859C59.3125 94.4003 60.1962 93.6681 60.3871 92.6594L60.9907 89.4709C62.2441 89.6037 63.5418 89.671 64.8538 89.671C66.6537 89.671 68.4516 89.5456 70.2038 89.2981L70.84 92.6596C71.0311 93.6684 71.9148 94.4004 72.9413 94.4004H77.0648C78.0915 94.4004 78.9752 93.6682 79.1662 92.6591L80.401 86.1211C83.8895 84.2765 86.5189 81.8533 88.2179 78.917C88.3404 78.7054 88.5289 78.5501 88.7487 78.4797L92.7083 77.2114C94.079 76.772 95 75.51 95 74.0706V69.9954C95 68.5561 94.079 67.2941 92.7083 66.855ZM84.3685 56.4773C84.0324 59.3514 83.1309 61.81 82.225 62.323C81.1954 62.9063 78.8183 63.0189 77.0335 61.7133C75.2466 60.4062 74.6519 58.0557 75.3134 54.9157C75.3134 54.9156 75.3134 54.9156 75.3134 54.9156C75.3799 54.6003 75.6039 54.3275 75.9127 54.1861C80.2843 52.185 82.8046 51.5305 83.741 51.5305C83.8823 51.5305 83.9875 51.5454 84.0576 51.5728C84.3389 51.8726 84.7078 53.5766 84.3685 56.4773ZM37.4517 66.172C37.3613 65.9856 37.5746 65.6581 37.7098 65.4793C37.9242 65.1961 38.1216 65.1382 38.2708 65.1382C38.3023 65.1382 38.3318 65.1408 38.3587 65.1444C38.7602 65.198 39.3227 65.6398 39.6207 66.3805C39.6909 66.5549 39.7821 66.8438 39.8034 67.204C38.5946 66.9536 37.6555 66.5925 37.4517 66.172Z" fill="#070809"/>
<path d="M92.7083 66.855L90.2506 66.0678C89.9359 65.9669 89.6878 65.7156 89.5871 65.3956C89.0691 63.7487 88.2875 62.2027 87.2639 60.8002C86.7973 60.1609 86.2786 59.5505 85.7118 58.9694C86.0744 57.3788 86.2715 55.5787 86.246 54.0235C86.2094 51.7987 85.7648 50.4938 84.8868 50.0339C84.414 49.786 82.9749 49.0327 75.1858 52.5982C75.0014 52.6826 74.8291 52.7866 74.6696 52.9056C74.1445 52.7645 73.6078 52.634 73.0678 52.5168C73.0027 52.5026 72.9357 52.4901 72.8702 52.4762C73.5014 51.0974 73.8699 49.5999 73.9392 48.0539C73.9607 47.5721 73.5877 47.164 73.1059 47.1426C72.6253 47.1187 72.2159 47.4939 72.1945 47.9758C72.0807 50.5177 71.0263 52.9094 69.2255 54.7102C68.1497 55.7861 66.8899 56.5676 65.5473 57.0598C63.2189 56.7331 60.8472 56.7331 58.5188 57.0598C57.1761 56.5676 55.9164 55.7861 54.8405 54.7102C52.9194 52.789 51.8613 50.2347 51.8613 47.5177C51.8613 44.8006 52.9194 42.2464 54.8405 40.3252C56.7617 38.4039 59.3162 37.3458 62.033 37.3458C64.7499 37.3458 67.3044 38.4039 69.2255 40.3252C69.9976 41.0972 70.6355 41.9782 71.1218 42.9435C71.3387 43.3743 71.8638 43.5477 72.2945 43.3307C72.7252 43.1139 72.8986 42.5888 72.6816 42.1581C72.1118 41.0262 71.3644 39.9941 70.4606 39.0901C68.2095 36.8391 65.2166 35.5994 62.0332 35.5994C58.8498 35.5994 55.8568 36.8391 53.6057 39.0901C51.3547 41.3413 50.115 44.3342 50.115 47.5176C50.115 50.701 51.3547 53.6939 53.6057 55.945C54.2551 56.5943 54.9615 57.1527 55.7087 57.6205C55.7089 57.6205 55.7091 57.6204 55.7094 57.6204C55.1664 57.7615 54.6276 57.92 54.0948 58.0981C53.6374 58.251 53.3906 58.7457 53.5435 59.2032C53.6963 59.6605 54.1912 59.9073 54.6485 59.7545C59.4105 58.1625 64.6558 58.1625 69.4179 59.7545C69.5097 59.7852 69.603 59.7998 69.6948 59.7998C70.06 59.7998 70.4006 59.5687 70.5228 59.2032C70.6757 58.7458 70.4289 58.251 69.9716 58.0981C69.4387 57.92 68.8999 57.7614 68.357 57.6204C68.3572 57.6204 68.3574 57.6205 68.3577 57.6205C69.105 57.1527 69.8112 56.5943 70.4606 55.945C71.035 55.3705 71.5421 54.7432 71.9824 54.0766C72.2231 54.1233 72.462 54.1723 72.6975 54.2234C73.0111 54.2915 73.3232 54.3646 73.6326 54.4414C73.6229 54.4793 73.6129 54.5172 73.6048 54.5557C73.179 56.5766 73.2066 58.364 73.687 59.8678C74.1187 61.2196 74.8979 62.3147 76.0026 63.123C77.3047 64.0755 78.8766 64.4869 80.3006 64.4869C81.3723 64.4869 82.3603 64.2537 83.0859 63.8427C83.9067 63.3778 84.5943 62.3983 85.1387 60.9276C85.3903 61.2212 85.6287 61.5221 85.8535 61.83C86.7649 63.0785 87.4606 64.4546 87.9214 65.9196C88.192 66.7802 88.8637 67.4573 89.7181 67.7311L92.1758 68.5184C92.8207 68.725 93.2539 69.3186 93.2539 69.9957V74.0709C93.2539 74.748 92.8207 75.3415 92.1758 75.5481L88.2161 76.8164C87.5826 77.0195 87.0465 77.4549 86.7065 78.0425C85.1509 80.731 82.705 82.9558 79.4366 84.6551C79.059 84.8516 78.7974 85.2031 78.7187 85.6196L77.4505 92.3348C77.4154 92.5198 77.2534 92.654 77.065 92.654H72.9416C72.7532 92.654 72.5912 92.5197 72.5561 92.3348L71.8537 88.6236C71.7154 87.8934 71.0306 87.4083 70.2935 87.52C68.5173 87.7886 66.687 87.9246 64.8539 87.9246C63.49 87.9246 62.1437 87.8486 60.8519 87.6985C60.1377 87.6163 59.4723 88.1032 59.3388 88.8085L58.6713 92.3348C58.6362 92.5198 58.4742 92.654 58.2859 92.654H54.1624C53.9741 92.654 53.812 92.5197 53.7765 92.332L52.5554 85.9895C52.4768 85.5809 52.2201 85.2334 51.8509 85.0362C46.2793 82.0619 43.3344 77.0927 43.3344 70.6661C43.3344 67.4191 44.0448 64.5478 45.4457 62.1319C46.7531 59.8773 48.6625 58.0132 51.121 56.5912C51.5384 56.3496 51.6811 55.8155 51.4396 55.398C51.1982 54.9805 50.6641 54.8382 50.2466 55.0793C45.4795 57.837 42.6043 62.0914 41.8127 67.4949V67.4948C41.7287 67.4871 41.6445 67.4799 41.5607 67.4712C41.576 66.8882 41.4705 66.2999 41.2408 65.729C40.7342 64.4697 39.6936 63.5608 38.5896 63.4135C37.7196 63.297 36.8916 63.6664 36.3171 64.4255C35.484 65.5264 35.6198 66.3975 35.8803 66.9345C36.3201 67.8407 37.4506 68.4817 39.3267 68.8847C39.2751 68.9619 39.2184 69.0395 39.1563 69.1175C38.0478 70.5077 36.7419 70.815 35.8939 70.844C35.3975 70.8607 35 71.2593 35 71.7561V71.7603C35 72.2502 35.3866 72.6498 35.8761 72.6722C35.9388 72.6752 36.0043 72.6767 36.0725 72.6767C37.1455 72.6767 38.8675 72.2809 40.522 70.2064C40.7832 69.8789 40.996 69.5335 41.1596 69.1765C41.3244 69.1952 41.4827 69.2111 41.6343 69.2252C41.6343 69.2248 41.6343 69.2246 41.6345 69.2242C41.6047 69.6974 41.5882 70.1775 41.5882 70.6661C41.5882 74.3022 42.455 77.5442 44.1644 80.3024C45.7406 82.8454 47.9973 84.9276 50.874 86.4934L52.0611 92.6594C52.252 93.6681 53.1357 94.4003 54.1624 94.4003H58.2859C59.3125 94.4003 60.1962 93.6681 60.3871 92.6594L60.9907 89.4709C62.2441 89.6037 63.5418 89.671 64.8538 89.671C66.6537 89.671 68.4516 89.5456 70.2038 89.2981L70.84 92.6596C71.0311 93.6684 71.9148 94.4004 72.9413 94.4004H77.0648C78.0915 94.4004 78.9752 93.6682 79.1662 92.6591L80.401 86.1211C83.8895 84.2765 86.5189 81.8533 88.2179 78.917C88.3404 78.7054 88.5289 78.5501 88.7487 78.4797L92.7083 77.2114C94.079 76.772 95 75.51 95 74.0706V69.9954C95 68.5561 94.079 67.2941 92.7083 66.855ZM84.3685 56.4773C84.0324 59.3514 83.1309 61.81 82.225 62.323C81.1954 62.9063 78.8183 63.0189 77.0335 61.7133C75.2466 60.4062 74.6519 58.0557 75.3134 54.9157C75.3134 54.9156 75.3134 54.9156 75.3134 54.9156C75.3799 54.6003 75.6039 54.3275 75.9127 54.1861C80.2843 52.185 82.8046 51.5305 83.741 51.5305C83.8823 51.5305 83.9875 51.5454 84.0576 51.5728C84.3389 51.8726 84.7078 53.5766 84.3685 56.4773ZM37.4517 66.172C37.3613 65.9856 37.5746 65.6581 37.7098 65.4793C37.9242 65.1961 38.1216 65.1382 38.2708 65.1382C38.3023 65.1382 38.3318 65.1408 38.3587 65.1444C38.7602 65.198 39.3227 65.6398 39.6207 66.3805C39.6909 66.5549 39.7821 66.8438 39.8034 67.204C38.5946 66.9536 37.6555 66.5925 37.4517 66.172Z" stroke="#070809" mask="url(#path-2-outside-1)"/>
<path d="M62.881 46.5168V43.3921C63.9585 43.4691 64.3588 43.9616 64.7282 43.9616C65.1901 43.9616 65.4056 43.3767 65.4056 43.0842C65.4056 42.3299 63.9277 42.0067 62.881 41.9759V41.5601C62.881 41.3754 62.65 41.2061 62.4192 41.2061C62.1574 41.2061 61.9727 41.3754 61.9727 41.5601V42.0064C60.5103 42.1604 59.0479 42.9301 59.0479 44.8697C59.0479 46.8401 60.5873 47.3943 61.9727 47.8868V51.5043C60.4025 51.3811 59.9869 50.3036 59.4789 50.3036C59.0941 50.3036 58.7709 50.8116 58.7709 51.1811C58.7709 51.9353 60.0639 52.9666 61.9727 52.9975V53.4747C61.9727 53.6593 62.1575 53.8287 62.4192 53.8287C62.6501 53.8287 62.881 53.6593 62.881 53.4747V52.9513C64.5435 52.7203 65.6826 51.6736 65.6826 49.7802C65.6826 47.6868 64.2202 47.0093 62.881 46.5168ZM62.065 46.2244C61.2492 45.9165 60.5873 45.5933 60.5873 44.7159C60.5873 43.9154 61.203 43.5306 62.065 43.4229V46.2244ZM62.7885 51.4734V48.2255C63.5428 48.5487 64.1431 48.9797 64.1431 49.9494C64.1431 50.827 63.6197 51.3196 62.7885 51.4734Z" fill="#070809"/>
</g>
<rect x="47.1507" y="0.680677" width="95" height="95" rx="19.5" transform="rotate(29.2853 47.1507 0.680677)" stroke="#EEC952"/>
<rect x="101.298" y="8.59723" width="95" height="95" rx="19.5" transform="rotate(77.3692 101.298 8.59723)" stroke="#EEC952"/>
<defs>
<clipPath id="clip0">
<rect width="60" height="60" fill="white" transform="translate(35 35)"/>
</clipPath>
</defs>
</svg>
