<svg width="49" height="41" viewBox="0 0 49 41" fill="none" xmlns="http://www.w3.org/2000/svg">
<path d="M48.2493 21.2499H0.750728C0.336326 21.2499 0 20.9135 0 20.4991C0 20.0847 0.336326 19.7484 0.750728 19.7484H48.2493C48.6637 19.7484 49 20.0847 49 20.4991C49 20.9135 48.6637 21.2499 48.2493 21.2499Z" fill="#EEC952"/>
<path d="M29.4254 40.0722C29.2332 40.0722 29.041 39.9986 28.8939 39.8529C28.6011 39.5602 28.6011 39.0842 28.8939 38.7914L47.1876 20.4977L28.8939 2.20995C28.6011 1.91717 28.6011 1.4412 28.8939 1.14842C29.1867 0.855637 29.6627 0.855637 29.9554 1.14842L48.7792 19.9662C48.9203 20.1073 48.9984 20.298 48.9984 20.4977C48.9984 20.6974 48.9188 20.8881 48.7792 21.0292L29.9554 39.8514C29.8098 39.9986 29.6176 40.0722 29.4254 40.0722Z" fill="#EEC952"/>
</svg>
