<svg width="26" height="26" viewBox="0 0 26 26" fill="none" xmlns="http://www.w3.org/2000/svg">
<path d="M24.6665 20.9568L21.2828 24.3134C20.7833 24.8257 20.1213 24.9992 19.4765 25C16.625 24.9146 13.9298 23.5139 11.7168 22.0757C8.08441 19.4331 4.75149 16.1564 2.65968 12.1966C1.8574 10.5362 0.916044 8.41756 1.00598 6.56418C1.014 5.86698 1.20188 5.18272 1.6929 4.73332L5.07663 1.3513C5.77927 0.753637 6.45877 0.960277 6.90841 1.65644L9.63063 6.81848C9.91715 7.43002 9.75279 8.08526 9.32531 8.52224L8.07867 9.76824C8.00171 9.87366 7.95271 9.99366 7.95147 10.1243C8.42951 11.9747 9.87773 13.6802 11.1571 14.854C12.4364 16.0277 13.8116 17.6179 15.5966 17.9944C15.8173 18.0559 16.0875 18.0776 16.2454 17.9308L17.6956 16.456C18.1955 16.0771 18.9173 15.8919 19.451 16.2017H19.4765L24.3867 19.1005C25.1075 19.5524 25.1826 20.4256 24.6665 20.9568Z" stroke="#EEC952" stroke-width="1.5"/>
</svg>
